<svg width="46" height="39" viewBox="0 0 46 39" fill="none" xmlns="http://www.w3.org/2000/svg">
<circle cx="41.5" cy="5.5" r="4" fill="url(#paint0_linear)" stroke="#D87704"/>
<path d="M22.2772 28.2875C13.2656 20.2449 11.0127 11.5321 11.0127 8.18103" stroke="#E28902" stroke-width="1.5" stroke-linecap="round"/>
<path d="M19.7838 29.9377C11.8143 20.5579 10.6198 11.5736 11.0188 8.25396" stroke="#E28902" stroke-width="1.5" stroke-linecap="round"/>
<path d="M25.4057 32.1186C15.5124 25.5812 12.2325 17.3089 11.8291 13.9899" stroke="#E28902" stroke-width="1.5" stroke-linecap="round"/>
<mask id="path-5-inside-1" fill="white">
<path fill-rule="evenodd" clip-rule="evenodd" d="M5.31242 36.0701C4.92061 37.235 5.86608 38.3407 7.09508 38.3407H42.1277C43.3567 38.3407 44.3021 37.235 43.9103 36.0701C41.565 29.0972 33.8129 23.979 24.6114 23.979C15.4098 23.979 7.65779 29.0972 5.31242 36.0701Z"/>
</mask>
<path fill-rule="evenodd" clip-rule="evenodd" d="M5.31242 36.0701C4.92061 37.235 5.86608 38.3407 7.09508 38.3407H42.1277C43.3567 38.3407 44.3021 37.235 43.9103 36.0701C41.565 29.0972 33.8129 23.979 24.6114 23.979C15.4098 23.979 7.65779 29.0972 5.31242 36.0701Z" fill="url(#paint1_linear)"/>
<path d="M43.9103 36.0701L45.3321 35.5919L43.9103 36.0701ZM7.09508 39.8407H42.1277V36.8407H7.09508V39.8407ZM24.6114 25.479C33.3135 25.479 40.3912 30.3128 42.4886 36.5483L45.3321 35.5919C42.7387 27.8817 34.3123 22.479 24.6114 22.479V25.479ZM6.73415 36.5483C8.83152 30.3128 15.9093 25.479 24.6114 25.479V22.479C14.9104 22.479 6.48406 27.8817 3.89069 35.5919L6.73415 36.5483ZM42.1277 39.8407C44.185 39.8407 46.1112 37.9083 45.3321 35.5919L42.4886 36.5483C42.5035 36.5926 42.5004 36.6153 42.4982 36.6261C42.4953 36.6409 42.4864 36.6669 42.4601 36.6995C42.4042 36.7686 42.2897 36.8407 42.1277 36.8407V39.8407ZM7.09508 36.8407C6.93304 36.8407 6.81851 36.7686 6.76269 36.6995C6.73635 36.6669 6.72743 36.6409 6.7245 36.6261C6.72236 36.6153 6.71926 36.5926 6.73415 36.5483L3.89069 35.5919C3.11156 37.9083 5.03772 39.8407 7.09508 39.8407V36.8407Z" fill="#E28902" mask="url(#path-5-inside-1)"/>
<path d="M12.5799 6.86867C17.2427 6.99574 20.3344 10.2572 21.2974 11.872" stroke="#E28902" stroke-width="1.5" stroke-linecap="round"/>
<path d="M9.43914 7.94423C5.09482 8.92021 2.55505 12.3206 1.8282 13.8987" stroke="#E28902" stroke-width="1.5" stroke-linecap="round"/>
<path d="M10.0344 5.6002C6.37832 2.74403 2.4881 3.06443 0.999992 3.58165" stroke="#E28902" stroke-width="1.5" stroke-linecap="round"/>
<path d="M20.5793 1.17293C16.1785 0.562757 12.9494 3.5027 11.885 5.04895" stroke="#E28902" stroke-width="1.5" stroke-linecap="round"/>
<defs>
<linearGradient id="paint0_linear" x1="41.5" y1="1" x2="41.5" y2="10" gradientUnits="userSpaceOnUse">
<stop stop-color="#FFA100"/>
<stop offset="1" stop-color="#FFCF00"/>
</linearGradient>
<linearGradient id="paint1_linear" x1="24.6114" y1="23.979" x2="24.6114" y2="38.3407" gradientUnits="userSpaceOnUse">
<stop stop-color="#FF9900"/>
<stop offset="1" stop-color="#FFD600"/>
</linearGradient>
</defs>
</svg>
