<svg width="46" height="42" viewBox="0 0 46 42" fill="none" xmlns="http://www.w3.org/2000/svg">
<path d="M10.9459 8.86777C10.9459 9.71188 10.2442 10.4139 9.35659 10.4139C8.46895 10.4139 7.76728 9.71188 7.76728 8.86777C7.76728 8.02365 8.46895 7.32163 9.35659 7.32163C10.2442 7.32163 10.9459 8.02365 10.9459 8.86777Z" fill="#FFC700" stroke="#E28902"/>
<path d="M17.0205 15.0068C17.0205 8.06889 15.9593 5.23793 14.2348 4.09159" stroke="#E28902" stroke-linecap="round"/>
<mask id="path-3-inside-1" fill="white">
<path fill-rule="evenodd" clip-rule="evenodd" d="M0.179603 38.9808C-0.608745 40.7366 1.35357 42.4501 3.04469 41.4826L13.55 35.4726H1.75477L0.179603 38.9808ZM2.36725 34.1085H15.9344L23.0896 30.0151H4.20519L2.36725 34.1085ZM4.81767 28.651H25.4741L27.4396 27.5266C28.6265 26.8476 28.7939 25.2331 27.7702 24.3392L26.4572 23.1926H7.2685L4.81767 28.651ZM8.49345 20.4644H23.3328L14.7474 12.9675C13.7237 12.0736 12.105 12.4209 11.5517 13.6531L8.49345 20.4644Z"/>
</mask>
<path fill-rule="evenodd" clip-rule="evenodd" d="M0.179603 38.9808C-0.608745 40.7366 1.35357 42.4501 3.04469 41.4826L13.55 35.4726H1.75477L0.179603 38.9808ZM2.36725 34.1085H15.9344L23.0896 30.0151H4.20519L2.36725 34.1085ZM4.81767 28.651H25.4741L27.4396 27.5266C28.6265 26.8476 28.7939 25.2331 27.7702 24.3392L26.4572 23.1926H7.2685L4.81767 28.651ZM8.49345 20.4644H23.3328L14.7474 12.9675C13.7237 12.0736 12.105 12.4209 11.5517 13.6531L8.49345 20.4644Z" fill="url(#paint0_linear)"/>
<path d="M3.04469 41.4826L2.54812 40.6146H2.54812L3.04469 41.4826ZM0.179603 38.9808L-0.732659 38.5712L0.179603 38.9808ZM13.55 35.4726L14.0466 36.3406L17.3118 34.4726H13.55V35.4726ZM1.75477 35.4726V34.4726H1.10759L0.842507 35.063L1.75477 35.4726ZM15.9344 34.1085V35.1085H16.2003L16.431 34.9765L15.9344 34.1085ZM2.36725 34.1085L1.45498 33.6989L0.822071 35.1085H2.36725V34.1085ZM23.0896 30.0151L23.5862 30.8831L26.8514 29.0151H23.0896V30.0151ZM4.20519 30.0151V29.0151H3.55802L3.29293 29.6055L4.20519 30.0151ZM25.4741 28.651V29.651H25.7399L25.9706 29.519L25.4741 28.651ZM4.81767 28.651L3.90541 28.2414L3.27249 29.651H4.81767V28.651ZM27.4396 27.5266L26.943 26.6586L27.4396 27.5266ZM27.7702 24.3392L27.1124 25.0924L27.7702 24.3392ZM26.4572 23.1926L27.1149 22.4394L26.8323 22.1926H26.4572V23.1926ZM7.2685 23.1926V22.1926H6.62132L6.35623 22.783L7.2685 23.1926ZM8.49345 20.4644L7.58119 20.0548L6.94827 21.4644H8.49345V20.4644ZM23.3328 20.4644V21.4644H25.9984L23.9906 19.7112L23.3328 20.4644ZM14.7474 12.9675L15.4051 12.2143V12.2143L14.7474 12.9675ZM11.5517 13.6531L10.6395 13.2435V13.2435L11.5517 13.6531ZM2.54812 40.6146C1.62706 41.1416 0.733176 40.1893 1.09187 39.3904L-0.732659 38.5712C-1.95067 41.2839 1.08008 43.7586 3.54126 42.3506L2.54812 40.6146ZM13.0535 34.6046L2.54812 40.6146L3.54126 42.3506L14.0466 36.3406L13.0535 34.6046ZM1.75477 36.4726H13.55V34.4726H1.75477V36.4726ZM1.09187 39.3904L2.66703 35.8822L0.842507 35.063L-0.732659 38.5712L1.09187 39.3904ZM15.9344 33.1085H2.36725V35.1085H15.9344V33.1085ZM22.5931 29.1471L15.4379 33.2405L16.431 34.9765L23.5862 30.8831L22.5931 29.1471ZM4.20519 31.0151H23.0896V29.0151H4.20519V31.0151ZM3.27951 34.5182L5.11745 30.4247L3.29293 29.6055L1.45498 33.6989L3.27951 34.5182ZM25.4741 27.651H4.81767V29.651H25.4741V27.651ZM26.943 26.6586L24.9775 27.783L25.9706 29.519L27.9362 28.3946L26.943 26.6586ZM27.1124 25.0924C27.611 25.5278 27.5417 26.3161 26.943 26.6586L27.9362 28.3946C29.7112 27.3791 29.9768 24.9385 28.4279 23.5859L27.1124 25.0924ZM25.7994 23.9459L27.1124 25.0924L28.4279 23.5859L27.1149 22.4394L25.7994 23.9459ZM26.4572 22.1926H7.2685V24.1926H26.4572V22.1926ZM5.72993 29.0606L8.18076 23.6022L6.35623 22.783L3.90541 28.2414L5.72993 29.0606ZM8.49345 21.4644H23.3328V19.4644H8.49345V21.4644ZM14.0897 13.7208L22.6751 21.2177L23.9906 19.7112L15.4051 12.2143L14.0897 13.7208ZM12.464 14.0627C12.7384 13.4517 13.5648 13.2625 14.0897 13.7208L15.4051 12.2143C13.8825 10.8847 11.4717 11.39 10.6395 13.2435L12.464 14.0627ZM9.40571 20.8741L12.464 14.0627L10.6395 13.2435L7.58119 20.0548L9.40571 20.8741Z" fill="#E28902" mask="url(#path-3-inside-1)"/>
<path d="M12.8404 2.83403C11.7261 1.65761 10.9832 1.36348 10.751 1.36348" stroke="#E28902" stroke-linecap="round"/>
<rect x="0.673936" y="0.232639" width="3.23132" height="3.17717" rx="0.5" transform="matrix(0.90274 -0.430186 0.445132 0.895465 16.9838 2.13449)" fill="url(#paint1_linear)" stroke="#E28902"/>
<path d="M27.9154 6.13772C27.9154 7.1248 27.0969 7.93385 26.0761 7.93385C25.0553 7.93385 24.2368 7.1248 24.2368 6.13772C24.2368 5.15064 25.0553 4.34159 26.0761 4.34159C27.0969 4.34159 27.9154 5.15064 27.9154 6.13772Z" stroke="#E28902" stroke-width="0.5"/>
<path d="M25.3793 19.1921C27.8256 10.789 35.6109 8.14465 32.1771 1.7035" stroke="#E28902" stroke-linecap="round"/>
<path d="M28.166 23.222C32.8426 20.9526 40.3315 21.1939 43.4913 25.9219" stroke="#E28902" stroke-linecap="round"/>
<path d="M33.2356 26.6048C33.2356 27.449 32.5339 28.151 31.6463 28.151C30.7586 28.151 30.057 27.449 30.057 26.6048C30.057 25.7607 30.7586 25.0587 31.6463 25.0587C32.5339 25.0587 33.2356 25.7607 33.2356 26.6048Z" fill="#FF6B00" stroke="#E28902"/>
<path d="M30.4518 19.1004C30.4518 19.5679 30.0619 19.9645 29.5589 19.9645C29.0559 19.9645 28.666 19.5679 28.666 19.1004C28.666 18.633 29.0559 18.2363 29.5589 18.2363C30.0619 18.2363 30.4518 18.633 30.4518 19.1004Z" fill="#FF6B00" stroke="#E28902"/>
<path d="M39.7031 6.13772C39.7031 6.6959 39.2352 7.18385 38.6138 7.18385C37.9924 7.18385 37.5245 6.6959 37.5245 6.13772C37.5245 5.57954 37.9924 5.09159 38.6138 5.09159C39.2352 5.09159 39.7031 5.57954 39.7031 6.13772Z" fill="#FF7A00" stroke="#E28902" stroke-width="2"/>
<rect x="0.314126" y="0.129952" width="0.477239" height="4.22597" rx="0.23862" transform="matrix(0.926517 -0.376252 0.389912 0.920852 41.0508 18.9445)" fill="#FF8A00" stroke="#E28902" stroke-width="0.477239"/>
<rect x="0.12619" y="-0.305032" width="0.470328" height="4.30284" rx="0.235164" transform="matrix(-0.389912 -0.920852 0.926517 -0.376252 40.7984 21.6554)" fill="#FF8A00" stroke="#E28902" stroke-width="0.470328"/>
<path d="M31.0686 16.0982C31.5171 13.1819 33.7387 12.6494 35.5118 15.0332" stroke="#E28902" stroke-linecap="round"/>
<path d="M35.5148 15.0321C35.9633 12.1159 38.1849 11.5834 39.958 13.9672" stroke="#E28902" stroke-linecap="round"/>
<path d="M39.9593 13.9669C40.4079 11.0507 42.6294 10.5182 44.4025 12.902" stroke="#E28902" stroke-linecap="round"/>
<path d="M23.4887 14.3253C23.4887 15.1694 22.7871 15.8714 21.8994 15.8714C21.0118 15.8714 20.3101 15.1694 20.3101 14.3253C20.3101 13.4812 21.0118 12.7791 21.8994 12.7791C22.7871 12.7791 23.4887 13.4812 23.4887 14.3253Z" fill="url(#paint2_linear)" stroke="#E28902"/>
<defs>
<linearGradient id="paint0_linear" x1="-3.37512" y1="45.8338" x2="29.079" y2="8.80452" gradientUnits="userSpaceOnUse">
<stop offset="0.177083" stop-color="#FAE632"/>
<stop offset="0.549298" stop-color="#FF8B02"/>
</linearGradient>
<linearGradient id="paint1_linear" x1="3.32196" y1="1.08627" x2="-0.0410386" y2="3.30562" gradientUnits="userSpaceOnUse">
<stop stop-color="#FF8A00"/>
<stop offset="1" stop-color="#FFF500"/>
</linearGradient>
<linearGradient id="paint2_linear" x1="23.2923" y1="12.9612" x2="20.5647" y2="15.7463" gradientUnits="userSpaceOnUse">
<stop stop-color="#FF6B00"/>
<stop offset="0.836359" stop-color="#FFE600"/>
</linearGradient>
</defs>
</svg>
