<svg width="24" height="24" viewBox="0 0 24 24" fill="none" xmlns="http://www.w3.org/2000/svg">
<g clip-path="url(#clip0)">
<path d="M17.4922 5.53593C16.0155 5.29776 14.5419 5.61304 13.2938 6.42538C13.6661 5.60732 14.2487 4.86745 15.0367 4.21518C15.9754 3.43818 16.866 3.08409 16.8733 3.08123C17.2419 2.93873 17.4252 2.52436 17.2827 2.15573C17.1402 1.78715 16.726 1.60378 16.3572 1.74633C16.2444 1.78992 14.4717 2.49478 13.0716 4.14032C13.0191 3.88129 12.9459 3.62057 12.8467 3.3621C12.0136 1.19198 9.72503 0.111236 9.62805 0.066283C9.45245 -0.015045 9.25141 -0.021795 9.07075 0.0474861C8.89014 0.116861 8.74525 0.256408 8.66922 0.434298C8.62717 0.532688 7.64965 2.86715 8.48271 5.03727C8.5578 5.23284 8.6448 5.4194 8.74085 5.59729C8.01714 5.43726 7.26297 5.41405 6.50796 5.53588C3.19709 6.07012 0.924877 9.26572 1.44284 12.6596C1.81152 15.0754 2.35048 17.1504 3.04498 18.8266C3.83262 20.7279 4.82745 22.1259 6.0018 22.9816C6.93166 23.6592 7.96746 24.0001 9.09152 24C9.40244 24 9.7203 23.9739 10.0443 23.9216C10.7921 23.801 11.4472 23.5269 12.0001 23.1045C12.5529 23.5269 13.208 23.8011 13.9558 23.9216C15.4509 24.1628 16.8112 23.8466 17.9983 22.9816C19.1726 22.1259 20.1675 20.728 20.9551 18.8266C21.6496 17.1503 22.1886 15.0754 22.5572 12.6596C23.0752 9.26572 20.803 6.07012 17.4922 5.53593ZM9.74167 1.79072C10.3341 2.20059 11.137 2.90179 11.5106 3.87496C11.8818 4.84204 11.7533 5.90502 11.5877 6.60866C10.9954 6.19883 10.1925 5.49763 9.81888 4.52442C9.44758 3.55739 9.57611 2.49445 9.74167 1.79072ZM21.1425 12.4437C20.4151 17.2104 19.0365 20.4544 17.1555 21.825C16.2759 22.4658 15.3039 22.6896 14.1836 22.5087C13.4971 22.398 12.9548 22.1183 12.5256 21.6537C12.3902 21.5071 12.1996 21.4237 12 21.4237C11.8003 21.4237 11.6098 21.5071 11.4743 21.6537C11.0452 22.1183 10.5028 22.398 9.8163 22.5087C8.69608 22.6893 7.72404 22.4658 6.84448 21.825C4.96348 20.4544 3.58484 17.2104 2.85744 12.4437C2.45755 9.82334 4.1974 7.35833 6.73577 6.94883C6.97933 6.90951 7.22294 6.8901 7.46472 6.8901C8.45289 6.8901 9.4113 7.21475 10.2216 7.83392C11.2686 8.63394 12.7312 8.63394 13.7782 7.83392C14.7869 7.06325 16.0249 6.74882 17.2641 6.94883H17.2641C19.8026 7.35838 21.5424 9.82339 21.1425 12.4437Z" fill="#F79520"/>
</g>
<defs>
<clipPath id="clip0">
<rect width="24" height="24" fill="white"/>
</clipPath>
</defs>
</svg>
