<svg width="24" height="24" viewBox="0 0 24 24" fill="none" xmlns="http://www.w3.org/2000/svg">
<g clip-path="url(#clip0)">
<path d="M23.8864 11.7261L21.9897 9.82935C21.5116 9.35265 20.9538 8.96319 20.3415 8.67854C20.7109 7.87296 20.9025 6.99723 20.9032 6.11099V3.48384C20.9032 3.27007 20.7298 3.09675 20.5161 3.09675H17.8889C17.0026 3.09728 16.1267 3.2887 15.321 3.65803C15.0363 3.04575 14.6469 2.48796 14.1702 2.00981L12.2735 0.113088C12.1223 -0.0380214 11.8773 -0.0380214 11.7261 0.113088L9.82939 2.00981C9.35269 2.48796 8.96323 3.04575 8.67858 3.65803C7.87305 3.28884 6.99751 3.09738 6.11142 3.09675H3.48426C3.2705 3.09675 3.09718 3.27007 3.09718 3.48384V6.11099C3.09771 6.99733 3.28912 7.87316 3.65845 8.67893C3.04618 8.96358 2.48839 9.35304 2.01024 9.82974L0.113515 11.7265C-0.0375941 11.8776 -0.0375941 12.1226 0.113515 12.2738L2.01024 14.1705C2.48839 14.6472 3.04618 15.0367 3.65845 15.3213C3.28927 16.1269 3.09781 17.0024 3.09718 17.8885V20.5156C3.09718 20.7294 3.2705 20.9027 3.48426 20.9027H6.11142C6.99775 20.9022 7.87363 20.7108 8.67935 20.3415C8.96401 20.9537 9.35347 21.5115 9.83016 21.9897L11.7269 23.8864C11.878 24.0375 12.1231 24.0375 12.2742 23.8864L14.171 21.9897C14.6476 21.5115 15.0371 20.9537 15.3218 20.3415C16.1273 20.7107 17.0028 20.9021 17.8889 20.9027H20.5161C20.7298 20.9027 20.9032 20.7294 20.9032 20.5156V17.8885C20.9026 17.0022 20.7112 16.1263 20.3419 15.3206C20.9542 15.0359 21.512 14.6464 21.9901 14.1698L23.8868 12.273C24.0376 12.1218 24.0374 11.8771 23.8864 11.7261ZM15.6059 4.37956C16.3205 4.04511 17.0999 3.8715 17.8889 3.87092H20.129V6.11099C20.1287 6.90026 19.9551 7.67986 19.6207 8.3948C19.0586 8.21868 18.473 8.12902 17.8839 8.12888H17.7291C16.9153 8.12863 16.1107 8.30011 15.3678 8.63209C15.6998 7.88917 15.8713 7.08457 15.871 6.27086V6.11603C15.8711 5.52712 15.7817 4.94161 15.6059 4.37956ZM17.7291 8.90305H17.8839C18.3411 8.90397 18.7961 8.96702 19.2364 9.0904C19.0334 9.39697 18.7999 9.6823 18.5396 9.94199L18.4575 10.0241C17.4433 11.0435 16.0634 11.6149 14.6254 11.6111L12.9346 11.6127L14.1702 10.3771C15.112 9.43012 16.3935 8.89932 17.7291 8.90305ZM15.0969 6.11603V6.27086C15.1005 7.60626 14.5697 8.88766 13.6228 9.82935L12.3873 11.0653V9.37259C12.3834 7.93456 12.9549 6.55469 13.9743 5.54043L14.0564 5.45837C14.3161 5.19805 14.6014 4.96464 14.908 4.76161C15.0321 5.20245 15.0956 5.6581 15.0969 6.11603ZM10.3775 2.55715L12.0002 0.934485L13.6228 2.55715C14.0463 2.98208 14.3902 3.47948 14.6382 4.02576C14.2292 4.27635 13.8505 4.57339 13.5098 4.91103L13.4277 4.99309C12.7954 5.62588 12.3083 6.38868 12.0002 7.22851C11.6921 6.38883 11.2051 5.62622 10.573 4.99348L10.4909 4.91141C10.1501 4.57363 9.77133 4.27645 9.36217 4.02576C9.61015 3.47953 9.95403 2.98213 10.3775 2.55715ZM8.90348 6.11603C8.9044 5.65878 8.96744 5.20381 9.09083 4.76355C9.3974 4.96652 9.68273 5.19999 9.94242 5.4603L10.0245 5.54236C11.0439 6.55663 11.6154 7.93649 11.6115 9.37452V11.0673L10.376 9.83167C9.42909 8.88916 8.89883 7.60684 8.90348 6.27086V6.11603ZM9.82978 10.3771L11.0657 11.6127H9.37301C7.93499 11.6165 6.55512 11.045 5.54086 10.0256L5.45879 9.94354C5.19848 9.68385 4.96506 9.39852 4.76204 9.09195C5.20288 8.96789 5.65853 8.90436 6.11645 8.90305H6.27129C7.60674 8.89942 8.88809 9.43021 9.82978 10.3771ZM3.87135 3.87092H6.11142C6.90069 3.87126 7.68028 4.04477 8.39523 4.37917C8.21911 4.94132 8.12945 5.52693 8.1293 6.11603V6.27086C8.12906 7.08457 8.30054 7.88917 8.63252 8.63209C7.8896 8.30011 7.08499 8.12863 6.27129 8.12888H6.11645C5.52755 8.12883 4.94203 8.2182 4.37998 8.39403C4.04554 7.67937 3.87193 6.90002 3.87135 6.11099V3.87092ZM2.55758 13.6224L0.934913 11.9997L2.55758 10.3771C2.9825 9.9536 3.47991 9.60972 4.02619 9.36175C4.27678 9.77075 4.57382 10.1494 4.91145 10.4901L4.99352 10.5722C5.62631 11.2045 6.38911 11.6916 7.22894 11.9997C6.38925 12.3078 5.62664 12.7948 4.9939 13.4269L4.91184 13.509C4.57406 13.8498 4.27687 14.2286 4.02619 14.6377C3.47996 14.3898 2.98255 14.0459 2.55758 13.6224ZM8.39446 19.6199C7.6798 19.9544 6.90045 20.128 6.11142 20.1286H3.87135V17.8885C3.87169 17.0992 4.0452 16.3196 4.3796 15.6047C4.94174 15.7808 5.52736 15.8705 6.11645 15.8706H6.27129C7.08499 15.8709 7.8896 15.6994 8.63252 15.3674C8.30054 16.1103 8.12906 16.9149 8.1293 17.7286V17.8835C8.12926 18.4724 8.21867 19.0579 8.39446 19.6199ZM6.27129 15.0964H6.11645C5.65921 15.0955 5.20424 15.0325 4.76397 14.9091C4.96695 14.6025 5.20041 14.3172 5.46073 14.0575L5.54279 13.9754C6.55705 12.956 7.93692 12.3846 9.37495 12.3884L11.0657 12.3868L9.83016 13.6224C8.88838 14.5694 7.60683 15.1002 6.27129 15.0964ZM8.90348 17.8835V17.7286C8.89985 16.3932 9.43064 15.1118 10.3775 14.1701L11.6131 12.9342V14.6269C11.6169 16.0649 11.0455 17.4448 10.026 18.4591L9.94397 18.5411C9.68428 18.8014 9.39895 19.0349 9.09238 19.2379C8.96831 18.7971 8.90478 18.3414 8.90348 17.8835ZM13.6228 21.4423L12.0002 23.065L10.3775 21.4423C9.95422 21.0179 9.61035 20.5213 9.36217 19.9757C9.77128 19.7245 10.1499 19.4268 10.4905 19.0885L10.5726 19.0064C11.2049 18.3736 11.692 17.6108 12.0002 16.771C12.3082 17.6107 12.7952 18.3733 13.4274 19.006L13.5094 19.0881C13.8502 19.4264 14.2289 19.7241 14.6382 19.9753C14.39 20.521 14.0462 21.0178 13.6228 21.4423ZM15.0969 17.8835C15.0959 18.3407 15.0329 18.7957 14.9095 19.2359C14.6029 19.033 14.3176 18.7995 14.0579 18.5392L13.9759 18.4571C12.9564 17.4429 12.385 16.063 12.3888 14.625V12.9342L13.6244 14.1698C14.5708 15.1118 15.101 16.3933 15.0969 17.7286V17.8835ZM14.1706 13.6224L12.9346 12.3868H14.6273C16.0654 12.383 17.4452 12.9544 18.4595 13.9739L18.5415 14.0559C18.8019 14.3156 19.0353 14.601 19.2383 14.9075C18.7975 15.0316 18.3419 15.0952 17.8839 15.0964H17.7291C16.3937 15.1001 15.1123 14.5693 14.1706 13.6224ZM20.129 20.1286H17.8889C17.0996 20.1282 16.3201 19.9547 15.6051 19.6203C15.7812 19.0582 15.8709 18.4726 15.871 17.8835V17.7286C15.8713 16.9149 15.6998 16.1103 15.3678 15.3674C16.1107 15.6994 16.9153 15.8709 17.7291 15.8706H17.8839C18.4728 15.8707 19.0583 15.7813 19.6204 15.6055C19.9548 16.3201 20.1284 17.0995 20.129 17.8885V20.1286ZM21.4428 13.6224C21.0184 14.0457 20.5217 14.3896 19.9761 14.6377C19.7249 14.2286 19.4272 13.85 19.0889 13.5094L19.0068 13.4273C18.374 12.795 17.6112 12.3079 16.7714 11.9997C17.6111 11.6917 18.3737 11.2047 19.0064 10.5726L19.0885 10.4905C19.4268 10.1498 19.7245 9.77099 19.9757 9.36175C20.5213 9.60992 21.018 9.9538 21.4424 10.3771L23.0654 11.9997L21.4428 13.6224Z" fill="#F79520"/>
</g>
<defs>
<clipPath id="clip0">
<rect width="24" height="24" fill="white"/>
</clipPath>
</defs>
</svg>
