<svg width="24" height="24" viewBox="0 0 24 24" fill="none" xmlns="http://www.w3.org/2000/svg">
<path d="M2.64033 12.6494C1.917 11.3594 1.38052 10.1337 1.04564 9.00614C0.431252 6.93729 0.65133 4.64636 1.62009 3.02737C2.21934 2.0259 3.36778 0.837236 5.44406 0.837236C5.45938 0.837236 5.47476 0.837292 5.49018 0.837404C6.36477 0.837404 7.21752 1.12758 7.95623 1.67662C8.12094 1.79907 8.33783 1.73924 8.44063 1.54317C8.54347 1.34704 8.49327 1.08884 8.32855 0.966445C7.47805 0.334354 6.49654 0.000253193 5.49267 0.000253193C3.61608 -0.017384 2.03747 0.886966 1.04733 2.54162C-0.0522165 4.37923 -0.306888 6.96324 0.382642 9.28521C0.736923 10.4782 1.29975 11.7665 2.05542 13.1142C2.54039 13.9791 3.11119 14.8799 3.75201 15.7914C3.82157 15.8903 3.92132 15.9414 4.02182 15.9413C4.10142 15.9413 4.18148 15.9093 4.24729 15.8437C4.39621 15.6954 4.41585 15.4313 4.29121 15.254C3.6667 14.3656 3.11123 13.4893 2.64033 12.6494Z" fill="#4E9B44"/>
<path d="M23.3764 10.7719H20.1545C18.8804 10.7719 17.655 11.0973 16.5123 11.7392C16.3367 11.8378 16.2614 12.0873 16.3443 12.2963C16.4272 12.5055 16.6368 12.5948 16.8123 12.4963C17.8605 11.9075 18.9849 11.6091 20.1544 11.6091H23.0247V13.9266C23.0247 19.0176 19.5243 23.1594 15.2217 23.1594H14.0174C13.8232 23.1594 13.6658 23.3468 13.6658 23.578C13.6658 23.8092 13.8232 23.9966 14.0174 23.9966H15.2217C19.912 23.9966 23.7279 19.4792 23.7279 13.9266V11.1905C23.7279 10.9593 23.5705 10.7719 23.3764 10.7719Z" fill="#4E9B44"/>
<path d="M9.03719 2.48004L10.6376 3.66949C11.038 3.96703 11.5015 4.1429 11.9782 4.17817C11.9927 4.17929 12.0072 4.17929 12.0218 4.17817C12.4984 4.1429 12.962 3.96703 13.3623 3.66949L16.0437 1.67666C16.7824 1.12767 17.6351 0.83744 18.5123 0.83744C20.6147 0.819356 21.7762 2.01857 22.3799 3.0274C23.3487 4.64639 23.5688 6.93733 22.9544 9.00617C22.9034 9.17786 22.8471 9.35373 22.7872 9.52898C22.7139 9.74308 22.8003 9.98732 22.9801 10.0746C23.0235 10.0956 23.0685 10.1056 23.1127 10.1056C23.2514 10.1056 23.3828 10.0072 23.4384 9.84483C23.5025 9.65752 23.5627 9.46926 23.6173 9.28524C24.3069 6.96328 24.0522 4.37927 22.9526 2.54166C21.971 0.901235 20.411 0.00012207 18.5581 0.00012207C18.5421 0.00012207 18.5258 0.000178005 18.5097 0.000289633C17.5034 0.000289633 16.5219 0.334391 15.6713 0.966481L12.99 2.95931C12.6945 3.17888 12.3527 3.31055 12 3.34085C11.6473 3.31055 11.3054 3.17888 11.01 2.95931L9.40952 1.76986C9.2447 1.64741 9.02786 1.70719 8.92506 1.90332C8.82227 2.09933 8.87247 2.35758 9.03719 2.48004Z" fill="#4E9B44"/>
<path d="M2.64428 4.31906C2.45486 4.26822 2.26661 4.4097 2.22386 4.63519C1.97603 5.94201 2.05201 7.37721 2.43784 8.67639C3.72025 12.9946 7.57233 17.4281 9.16904 19.1338C9.23616 19.2055 9.32011 19.2408 9.40374 19.2408C9.50011 19.2408 9.59611 19.1939 9.66554 19.1018C9.79524 18.9297 9.78319 18.665 9.63868 18.5107C8.08215 16.8479 4.32929 12.5338 3.10084 8.39732C2.75861 7.24504 2.69078 5.97439 2.90978 4.8196C2.95253 4.59406 2.83365 4.36996 2.64428 4.31906Z" fill="#4E9B44"/>
<path d="M10.8174 22.4136C9.9838 21.77 8.93526 20.8033 8.08106 19.8907C7.06514 18.8055 6.06464 17.6248 5.1877 16.4761C5.05711 16.3051 4.83478 16.2924 4.69101 16.4479C4.54734 16.6034 4.53675 16.8681 4.66734 17.0393C5.56003 18.2085 6.57811 19.41 7.61142 20.5138C8.49084 21.4534 9.57271 22.4505 10.4348 23.116C10.4939 23.1616 10.5603 23.1834 10.6258 23.1834C10.741 23.1834 10.8538 23.1161 10.9211 22.9925C11.0268 22.7986 10.9803 22.5394 10.8174 22.4136Z" fill="#4E9B44"/>
<path d="M18.3252 19.6341V19.634C18.5194 19.634 18.6768 19.4466 18.6768 19.2154C18.6768 18.9842 18.5194 18.7968 18.3252 18.7968H16.9506L18.168 17.4796H20.3731C20.5672 17.4796 20.7247 17.2922 20.7247 17.061C20.7247 16.8298 20.5673 16.6424 20.3731 16.6424H18.9418L20.1592 15.3253H21.4348C21.629 15.3253 21.7864 15.1378 21.7864 14.9067C21.7864 14.6755 21.629 14.4881 21.4348 14.4881H20.9329L22.2476 13.0657C22.324 12.9831 22.3627 12.8697 22.3627 12.7558C22.3627 12.6554 22.3325 12.5546 22.2713 12.4744C22.1408 12.3033 21.9184 12.2907 21.7747 12.4462L19.3595 15.0593V13.8295C19.3595 13.5983 19.202 13.4109 19.0078 13.4109C18.8136 13.4109 18.6562 13.5983 18.6562 13.8295V15.8201L17.5392 17.0287V15.7148C17.5392 15.4836 17.3818 15.2962 17.1876 15.2962C16.9934 15.2962 16.836 15.4836 16.836 15.7148V17.7895L12.1383 22.8721C10.9408 18.9965 12.0488 14.6813 14.8709 12.2571C15.3948 13.914 15.5046 15.6912 15.1868 17.4278C15.1608 17.5703 15.1314 17.7142 15.0995 17.8556C15.0492 18.0788 15.1604 18.3085 15.348 18.3684C15.5353 18.4284 15.7284 18.2959 15.7787 18.0726C15.8134 17.9184 15.8455 17.7615 15.8739 17.6061C16.2537 15.5305 16.074 13.4023 15.3542 11.4515C15.3128 11.3393 15.2322 11.2544 15.1337 11.219C15.0351 11.1836 14.9286 11.2015 14.842 11.2678C13.1664 12.5511 11.921 14.5088 11.3353 16.7803C10.7439 19.0737 10.8651 21.5477 11.6765 23.7464C11.7152 23.8513 11.7857 23.9278 11.8686 23.9671C11.9122 23.989 11.9589 24 12.0057 24C12.09 24 12.1746 23.9641 12.242 23.8912L16.1767 19.6341H18.3252Z" fill="#4E9B44"/>
</svg>
