<svg width="24" height="26" viewBox="0 0 24 26" fill="none" xmlns="http://www.w3.org/2000/svg">
<path d="M23.0307 7.83923C22.4799 7.16293 21.7336 6.66867 20.9053 6.42614C20.7959 4.14399 18.9136 2.321 16.6156 2.321C16.3564 2.321 16.0982 2.34441 15.8443 2.39072C15.121 0.928329 13.645 0 12 0C10.3551 0 8.87912 0.928329 8.15577 2.39067C7.90195 2.34436 7.64364 2.32095 7.38446 2.32095C6.71216 2.32095 6.06827 2.47273 5.47067 2.77214C5.28296 2.86614 5.20664 3.09531 5.30024 3.28391C5.39385 3.47246 5.62189 3.54924 5.8096 3.45515C6.30101 3.20901 6.83089 3.08419 7.38446 3.08419C7.687 3.08419 7.98798 3.12283 8.27899 3.19911C8.46332 3.24715 8.65456 3.15112 8.72648 2.97399C9.27213 1.63099 10.5571 0.763189 12 0.763189C13.443 0.763189 14.728 1.63099 15.2736 2.97399C15.3456 3.15112 15.5369 3.24715 15.7211 3.19911C16.0122 3.12283 16.3131 3.08419 16.6157 3.08419C18.5649 3.08419 20.1508 4.67755 20.1508 6.63602C20.1255 6.85118 20.2301 7.04745 20.4489 7.09696C22.0664 7.44476 23.2404 8.90518 23.2404 10.5695C23.2404 10.7803 23.4105 10.9511 23.6202 10.9511C23.83 10.9511 24 10.7803 24 10.5695C24 9.5762 23.6558 8.60653 23.0307 7.83923Z" fill="#4E9B44"/>
<path d="M23.471 11.7145C23.2771 11.6342 23.0551 11.727 22.9751 11.9218C22.5307 13.0049 21.5863 13.7974 20.4487 14.0421C20.2298 14.0917 20.1254 14.2878 20.1506 14.503C20.1506 16.4615 18.5648 18.0548 16.6155 18.0548C16.1847 18.0548 15.7625 17.9771 15.3609 17.8238C15.1974 17.7615 15.0126 17.8194 14.9132 17.9641C14.2521 18.9288 13.1631 19.5047 11.9999 19.5047C10.8368 19.5047 9.74778 18.9288 9.08665 17.9641C8.98739 17.8194 8.80241 17.7614 8.63901 17.8238C8.23731 17.9771 7.81524 18.0548 7.38437 18.0548C5.43515 18.0548 3.84927 16.4615 3.84927 14.503C3.87454 14.2878 3.76992 14.0916 3.55118 14.0421C1.93366 13.6943 0.759584 12.2338 0.759584 10.5695C0.759584 8.90525 1.93361 7.44488 3.55118 7.09703C3.76411 7.05392 3.87803 6.84364 3.84927 6.63609C3.84927 5.77586 4.15929 4.94585 4.72217 4.29915C4.86025 4.14051 4.84417 3.8994 4.68628 3.76067C4.52839 3.62188 4.28847 3.63798 4.15034 3.79667C3.51226 4.5298 3.14164 5.4566 3.09474 6.42617C2.26637 6.6687 1.52013 7.16295 0.969279 7.83925C0.344236 8.60665 0 9.57627 0 10.5695C0 11.5628 0.344236 12.5325 0.969279 13.2998C1.52013 13.9761 2.26642 14.4703 3.09469 14.7129C3.20411 16.995 5.08637 18.818 7.38437 18.818C7.81034 18.818 8.22937 18.7555 8.63375 18.6318C9.06694 19.1807 9.62118 19.6094 10.2437 19.89C9.9128 22.3525 9.17439 23.8373 8.60206 24.6569C8.20628 25.2134 8.61606 26.0058 9.2967 25.9999H14.7032C15.384 26.0058 15.7935 25.2132 15.3978 24.657C15.0225 24.1194 14.6949 23.4667 14.4242 22.7171C14.3526 22.519 14.1348 22.4167 13.9375 22.4886C13.7404 22.5605 13.6385 22.7794 13.7101 22.9774C14.0037 23.7901 14.3622 24.5027 14.776 25.0952C14.8159 25.1649 14.7828 25.2294 14.7032 25.2367H9.29675C9.2171 25.2294 9.184 25.1649 9.22397 25.0952C9.833 24.223 10.614 22.6683 10.9756 20.1427C11.3073 20.2247 11.6509 20.2678 12.0001 20.2678C12.3492 20.2678 12.6927 20.2247 13.0243 20.1427C13.0901 20.6008 13.1722 21.0451 13.2697 21.4684C13.3103 21.6449 13.4666 21.7641 13.6394 21.7641C13.6677 21.7641 13.6965 21.7609 13.7253 21.7542C13.9297 21.7067 14.057 21.5017 14.0098 21.2964C13.907 20.8498 13.8222 20.3778 13.7564 19.8899C14.3789 19.6093 14.9331 19.1806 15.3662 18.6317C15.7707 18.7554 16.1897 18.818 16.6156 18.818C18.9136 18.818 20.7958 16.9952 20.9053 14.713C22.1537 14.3492 23.1769 13.4325 23.6774 12.2126C23.7574 12.0179 23.6649 11.7948 23.471 11.7145Z" fill="#4E9B44"/>
<path d="M6.7746 10.4378C6.56485 10.4378 6.39478 10.6086 6.39478 10.8194V11.8538C5.538 12.0308 4.89178 12.7944 4.89178 13.7068C4.89178 14.7499 5.73638 15.5986 6.7746 15.5986C7.81281 15.5986 8.65741 14.7499 8.65741 13.7068C8.65741 12.7944 8.01114 12.0308 7.15436 11.8538V11.2011H11.6203V11.8538C10.7636 12.0308 10.1173 12.7944 10.1173 13.7068C10.1173 14.7499 10.9619 15.5986 12.0001 15.5986C13.0383 15.5986 13.8829 14.7499 13.8829 13.7068C13.8829 12.7944 13.2366 12.0308 12.3799 11.8538V11.2011H16.8458V11.8538C15.989 12.0308 15.3427 12.7944 15.3427 13.7068C15.3427 14.7499 16.1874 15.5986 17.2256 15.5986C18.2638 15.5986 19.1084 14.7499 19.1084 13.7068C19.1084 12.7944 18.4621 12.0308 17.6054 11.8538V10.8194C17.6054 10.6086 17.4353 10.4378 17.2256 10.4378H12.3799V9.70413H14.4546C14.6644 9.70413 14.8345 9.5333 14.8345 9.32251V8.32171C15.6912 8.14469 16.3375 7.38109 16.3375 6.46866C16.3375 5.42551 15.4929 4.5769 14.4547 4.5769C13.4165 4.5769 12.5719 5.42551 12.5719 6.46866C12.5719 7.38109 13.2181 8.14469 14.0749 8.32171V8.94094H9.92533V8.32171C10.7821 8.14469 11.4283 7.38109 11.4283 6.46866C11.4283 5.42551 10.5837 4.5769 9.54552 4.5769C8.5073 4.5769 7.66271 5.42551 7.66271 6.46866C7.66271 7.38109 8.30898 8.14474 9.16575 8.32171V9.32251C9.16575 9.5333 9.33582 9.70413 9.54557 9.70413H11.6203V10.4378H6.7746ZM7.89782 13.7067C7.89782 14.329 7.39393 14.8353 6.7746 14.8353C6.15526 14.8353 5.65137 14.329 5.65137 13.7067C5.65137 13.0845 6.15526 12.5782 6.7746 12.5782C7.39393 12.5782 7.89782 13.0845 7.89782 13.7067ZM13.1233 13.7067C13.1233 14.329 12.6194 14.8353 12.0001 14.8353C11.3807 14.8353 10.8769 14.329 10.8769 13.7067C10.8769 13.0845 11.3808 12.5782 12.0001 12.5782C12.6194 12.5782 13.1233 13.0845 13.1233 13.7067ZM18.3488 13.7067C18.3488 14.329 17.8449 14.8353 17.2256 14.8353C16.6062 14.8353 16.1023 14.329 16.1023 13.7067C16.1023 13.0845 16.6062 12.5782 17.2256 12.5782C17.8449 12.5782 18.3488 13.0845 18.3488 13.7067ZM13.3314 6.4686C13.3314 5.84633 13.8353 5.34004 14.4546 5.34004C15.0739 5.34004 15.5778 5.84633 15.5778 6.4686C15.5778 7.09088 15.0739 7.59716 14.4546 7.59716C13.8353 7.59716 13.3314 7.09093 13.3314 6.4686ZM8.42229 6.4686C8.42229 5.84633 8.92619 5.34004 9.54552 5.34004C10.1648 5.34004 10.6687 5.84633 10.6687 6.4686C10.6687 7.09088 10.1648 7.59716 9.54552 7.59716C8.92614 7.59716 8.42229 7.09093 8.42229 6.4686Z" fill="#4E9B44"/>
</svg>
