<svg width="24" height="24" viewBox="0 0 24 24" fill="none" xmlns="http://www.w3.org/2000/svg">
<g clip-path="url(#clip0)">
<path d="M8.00029 14.0002C8.44227 14.0002 8.80027 14.3584 8.80027 14.8002C8.80027 15.0211 8.97937 15.2002 9.20026 15.2002C9.42116 15.2002 9.60026 15.0211 9.60026 14.8002C9.59752 14.0729 9.10456 13.4389 8.40028 13.2571V12.8003C8.40028 12.5794 8.22119 12.4003 8.00029 12.4003C7.7794 12.4003 7.6003 12.5794 7.6003 12.8003V13.2571C6.82102 13.4577 6.31283 14.2067 6.41439 15.0049C6.51595 15.8031 7.19562 16.4012 8.00029 16.4002C8.44227 16.4002 8.80027 16.7584 8.80027 17.2002C8.80027 17.6419 8.44227 18.0001 8.00029 18.0001C7.55851 18.0001 7.20031 17.6419 7.20031 17.2002C7.20031 16.9793 7.02121 16.8002 6.80032 16.8002C6.57943 16.8002 6.40033 16.9793 6.40033 17.2002C6.40306 17.9275 6.89622 18.5615 7.6003 18.7433V19.2001C7.6003 19.421 7.7794 19.6001 8.00029 19.6001C8.22119 19.6001 8.40028 19.421 8.40028 19.2001V18.7445C9.1821 18.5458 9.69283 17.7955 9.59108 16.9955C9.48932 16.1953 8.80691 15.5967 8.00029 15.6002C7.55851 15.6002 7.20031 15.242 7.20031 14.8002C7.20031 14.3584 7.55851 14.0002 8.00029 14.0002Z" fill="#F79520"/>
<path d="M9.20026 10.0004H6.80032C6.57943 10.0004 6.40033 10.1795 6.40033 10.4004C6.40033 10.6213 6.57943 10.8003 6.80032 10.8003H9.20026C9.42116 10.8003 9.60025 10.6213 9.60025 10.4004C9.60025 10.1795 9.42116 10.0004 9.20026 10.0004Z" fill="#F79520"/>
<path d="M9.20026 21.2002H6.80032C6.57943 21.2002 6.40033 21.3793 6.40033 21.6002C6.40033 21.8211 6.57943 22.0002 6.80032 22.0002H9.20026C9.42116 22.0002 9.60025 21.8211 9.60025 21.6002C9.60025 21.3793 9.42116 21.2002 9.20026 21.2002Z" fill="#F79520"/>
<path d="M21.9172 15.4003L16.045 5.23045C16.4063 4.87206 16.7261 4.47383 16.9977 4.04337C17.6645 2.96331 17.7837 1.93814 17.3329 1.15749C16.4358 -0.396572 13.6027 -0.384072 10.883 1.18581C10.5219 1.39733 10.1747 1.63151 9.84321 1.88697L9.52037 1.52057C9.13542 1.08464 8.58191 0.83465 8.00029 0.83426C7.41886 0.83465 6.86535 1.08464 6.4804 1.52057L2.10765 6.47573C1.7807 6.84604 1.60024 7.32317 1.60043 7.8173V20.4002C1.60278 22.3875 3.21309 23.998 5.20035 24.0001H10.8002C12.7875 23.998 14.398 22.3875 14.4001 20.4002V7.8173C14.3994 7.43196 14.2882 7.05482 14.0802 6.73041H14.0834C14.5617 6.45386 15.0156 6.13726 15.4402 5.78415L21.2244 15.8003C21.9982 17.1396 21.5396 18.8524 20.2 19.6258L15.3505 22.4258C15.1372 22.5476 14.9085 22.6408 14.6706 22.7025C14.4572 22.7593 14.33 22.9785 14.3869 23.192C14.4435 23.4054 14.6626 23.5326 14.8763 23.4757C15.1814 23.3955 15.4747 23.2754 15.7485 23.1185L20.598 20.3186C22.3209 19.3251 22.9117 17.1228 21.9172 15.4003ZM13.6002 20.4002C13.5984 21.9459 12.3459 23.1984 10.8002 23.2002H5.20035C3.65488 23.1984 2.40217 21.9459 2.40042 20.4002V7.8173C2.40042 7.51809 2.50959 7.22923 2.70763 7.00482L7.08039 2.05025C7.31319 1.786 7.64815 1.63444 8.00029 1.63424C8.35243 1.63444 8.68758 1.786 8.92038 2.05025L12.8215 6.47124C11.9297 6.89193 10.9551 7.10814 9.96919 7.10404C9.98735 7.00385 9.9977 6.90229 10.0002 6.80053C9.99907 5.69645 9.10436 4.80194 8.00029 4.80058C7.95634 4.80194 7.91298 4.81073 7.87197 4.82655C7.67041 4.80175 7.48292 4.93378 7.438 5.13182C7.29562 5.67849 7.36554 6.25875 7.6335 6.756C7.89931 7.19622 8.31278 7.52766 8.80027 7.69094C8.44969 8.01085 7.94287 8.09269 7.50928 7.89972C7.0755 7.70656 6.79738 7.27513 6.80031 6.80053C6.80031 6.57964 6.62122 6.40054 6.40032 6.40054C6.17943 6.40054 6.00033 6.57964 6.00033 6.80053C5.99936 7.68723 6.58294 8.46846 7.4337 8.71885C8.28427 8.96923 9.19811 8.62881 9.67759 7.88293C9.83501 7.89953 9.99321 7.90832 10.1516 7.9089C11.2682 7.87512 12.3643 7.59915 13.3638 7.10013C13.5164 7.30833 13.599 7.5593 13.6002 7.8173V20.4002ZM9.20026 6.80053C9.1987 6.85912 9.19284 6.91752 9.18268 6.97533C8.82976 6.88354 8.5241 6.66264 8.32645 6.35601C8.20302 6.13082 8.15009 5.87379 8.17431 5.61814C8.76179 5.70427 9.19792 6.20679 9.20026 6.80053ZM13.683 6.03414C13.6431 6.05738 13.6031 6.0773 13.5631 6.09976L10.375 2.48657C10.6653 2.26645 10.9686 2.06411 11.283 1.88052C13.5363 0.578992 15.9898 0.431925 16.6397 1.56061C16.937 2.07466 16.8222 2.80863 16.3169 3.62658C16.1171 3.94395 15.8868 4.24102 15.629 4.51328L15.6249 4.50605C15.3782 4.07813 14.9833 3.75509 14.515 3.59767L12.9486 3.06819C12.7416 3.00511 12.5219 3.11819 12.4529 3.32327C12.3838 3.52853 12.4906 3.75138 12.6939 3.82618L14.2603 4.35293C14.5437 4.44844 14.7826 4.64394 14.9322 4.90292L15.0341 5.07928C14.6144 5.43923 14.1621 5.75915 13.683 6.03531V6.03414Z" fill="#F79520"/>
<path d="M15.2538 16.1231C15.3642 16.3143 15.6089 16.38 15.8001 16.2694L18.5713 14.6694C18.6961 14.5985 18.7733 14.4661 18.7737 14.3226C18.7739 14.179 18.6973 14.0464 18.5729 13.9749C18.4483 13.9034 18.2952 13.904 18.1713 13.9767L15.4001 15.5767C15.2089 15.6872 15.1433 15.9317 15.2538 16.1231Z" fill="#F79520"/>
<path d="M15.7603 18.6002C15.8704 18.7916 16.1152 18.8575 16.3066 18.7469L19.7705 16.747C19.9619 16.6366 20.0276 16.3919 19.917 16.2005C19.8067 16.0091 19.5619 15.9435 19.3705 16.0538L15.9066 18.0538C15.7154 18.1643 15.6497 18.4088 15.7603 18.6002Z" fill="#F79520"/>
<path d="M15.9862 13.7911C16.0564 13.7911 16.1253 13.7725 16.1862 13.7374L17.5718 12.9374C17.6966 12.8665 17.7737 12.7341 17.7741 12.5905C17.7743 12.4472 17.6977 12.3144 17.5733 12.2429C17.4489 12.1714 17.2956 12.172 17.1718 12.2446L15.7862 13.0446C15.6294 13.1352 15.553 13.3196 15.5999 13.4946C15.6468 13.6694 15.8052 13.7911 15.9862 13.7911Z" fill="#F79520"/>
</g>
<defs>
<clipPath id="clip0">
<rect width="24" height="24" fill="white"/>
</clipPath>
</defs>
</svg>
