<svg width="47" height="47" viewBox="0 0 47 47" fill="none" xmlns="http://www.w3.org/2000/svg">
<rect y="21" width="47" height="2" rx="1" fill="white"/>
<rect x="12" y="25" width="23" height="2" rx="1" fill="white"/>
<rect x="12" y="17" width="23.5" height="1.95833" rx="0.979167" fill="white"/>
<path fill-rule="evenodd" clip-rule="evenodd" d="M35.2917 32.3125C34.1871 32.3125 33.2917 33.2079 33.2917 34.3125V40.1042C33.2917 41.2087 34.1871 42.1042 35.2917 42.1042H41.0833C42.1879 42.1042 43.0833 41.2087 43.0833 40.1042V34.3125C43.0833 33.2079 42.1879 32.3125 41.0833 32.3125H35.2917ZM38.1875 39.1667C39.2691 39.1667 40.1458 38.2899 40.1458 37.2083C40.1458 36.1268 39.2691 35.25 38.1875 35.25C37.106 35.25 36.2292 36.1268 36.2292 37.2083C36.2292 38.2899 37.106 39.1667 38.1875 39.1667Z" fill="white"/>
<path fill-rule="evenodd" clip-rule="evenodd" d="M5.91666 32.3125C4.81209 32.3125 3.91666 33.2079 3.91666 34.3125V40.1042C3.91666 41.2087 4.8121 42.1042 5.91667 42.1042H11.7083C12.8129 42.1042 13.7083 41.2087 13.7083 40.1042V34.3125C13.7083 33.2079 12.8129 32.3125 11.7083 32.3125H5.91666ZM8.81251 39.1667C9.89407 39.1667 10.7708 38.2899 10.7708 37.2083C10.7708 36.1268 9.89407 35.25 8.81251 35.25C7.73095 35.25 6.85417 36.1268 6.85417 37.2083C6.85417 38.2899 7.73095 39.1667 8.81251 39.1667Z" fill="white"/>
<path fill-rule="evenodd" clip-rule="evenodd" d="M5.91666 2.9375C4.81209 2.9375 3.91666 3.83293 3.91666 4.9375V10.7292C3.91666 11.8337 4.8121 12.7292 5.91667 12.7292H11.7083C12.8129 12.7292 13.7083 11.8337 13.7083 10.7292V4.9375C13.7083 3.83293 12.8129 2.9375 11.7083 2.9375H5.91666ZM8.81251 9.79167C9.89407 9.79167 10.7708 8.91489 10.7708 7.83333C10.7708 6.75178 9.89407 5.875 8.81251 5.875C7.73095 5.875 6.85417 6.75178 6.85417 7.83333C6.85417 8.91489 7.73095 9.79167 8.81251 9.79167Z" fill="white"/>
<path fill-rule="evenodd" clip-rule="evenodd" d="M35.2917 2.9375C34.1871 2.9375 33.2917 3.83293 33.2917 4.9375V10.7292C33.2917 11.8337 34.1871 12.7292 35.2917 12.7292H41.0833C42.1879 12.7292 43.0833 11.8337 43.0833 10.7292V4.9375C43.0833 3.83293 42.1879 2.9375 41.0833 2.9375H35.2917ZM38.1875 9.79167C39.2691 9.79167 40.1458 8.91489 40.1458 7.83333C40.1458 6.75178 39.2691 5.875 38.1875 5.875C37.106 5.875 36.2292 6.75178 36.2292 7.83333C36.2292 8.91489 37.106 9.79167 38.1875 9.79167Z" fill="white"/>
<path d="M1.95834 0H15.6667C16.2074 0 16.6458 0.438388 16.6458 0.979167C16.6458 1.51995 16.2074 1.95833 15.6667 1.95833H1.95834V0Z" fill="white"/>
<path d="M0.979167 14.6875C0.438388 14.6875 0 14.2491 0 13.7083L0 1.95833C0 0.876776 0.876776 0 1.95833 0L1.95833 13.7083C1.95833 14.2491 1.51995 14.6875 0.979167 14.6875Z" fill="white"/>
<path d="M30.3542 0.979167C30.3542 0.438388 30.7926 0 31.3333 0H45.0417V1.95833H31.3333C30.7926 1.95833 30.3542 1.51995 30.3542 0.979167Z" fill="white"/>
<path d="M46.0208 14.6875C45.4801 14.6875 45.0417 14.2491 45.0417 13.7083V0C46.1232 0 47 0.876776 47 1.95833V13.7083C47 14.2491 46.5616 14.6875 46.0208 14.6875Z" fill="white"/>
<path d="M45.0417 46.0208V32.3125C45.0417 31.7717 45.4801 31.3333 46.0208 31.3333C46.5616 31.3333 47 31.7717 47 32.3125V44.0625C47 45.1441 46.1232 46.0208 45.0417 46.0208Z" fill="white"/>
<path d="M30.3542 45.0417C30.3542 44.5009 30.7926 44.0625 31.3333 44.0625H45.0417V46.0208H31.3333C30.7926 46.0208 30.3542 45.5824 30.3542 45.0417Z" fill="white"/>
<path d="M0 44.0625L0 30.3542C0 29.8134 0.438388 29.375 0.979167 29.375C1.51995 29.375 1.95833 29.8134 1.95833 30.3542L1.95833 44.0625H0Z" fill="white"/>
<path d="M0 44.0625H13.7083C14.2491 44.0625 14.6875 44.5009 14.6875 45.0417C14.6875 45.5824 14.2491 46.0208 13.7083 46.0208H1.95833C0.876776 46.0208 0 45.1441 0 44.0625Z" fill="white"/>
</svg>
